<mxfile host="app.diagrams.net" modified="2024-04-14T17:09:00.539Z" agent="Mozilla/5.0 (Windows NT 10.0; Win64; x64) AppleWebKit/537.36 (KHTML, like Gecko) Chrome/123.0.0.0 Safari/537.36 Edg/123.0.0.0" etag="cONJnbC69GCrpReNCX-5" version="24.2.2" type="github">
  <diagram name="Strona-1" id="EnKGfO9T1w9YIbB4TAQB">
    <mxGraphModel dx="1334" dy="732" grid="1" gridSize="10" guides="1" tooltips="1" connect="1" arrows="1" fold="1" page="1" pageScale="1" pageWidth="827" pageHeight="1169" math="0" shadow="0">
      <root>
        <mxCell id="0" />
        <mxCell id="1" parent="0" />
        <mxCell id="QSxUD3L64rz79heJzELz-1" value="Koordynator partnerski" style="shape=umlActor;verticalLabelPosition=bottom;verticalAlign=top;html=1;" parent="1" vertex="1">
          <mxGeometry x="380" y="330" width="30" height="60" as="geometry" />
        </mxCell>
        <mxCell id="QSxUD3L64rz79heJzELz-2" value="" style="endArrow=open;html=1;rounded=0;exitX=0.5;exitY=0.5;exitDx=0;exitDy=0;exitPerimeter=0;entryX=0.01;entryY=0.5;entryDx=0;entryDy=0;entryPerimeter=0;endFill=0;" parent="1" source="QSxUD3L64rz79heJzELz-1" target="QSxUD3L64rz79heJzELz-7" edge="1">
          <mxGeometry width="50" height="50" relative="1" as="geometry">
            <mxPoint x="650" y="400" as="sourcePoint" />
            <mxPoint x="511.0802214538196" y="327.97786994377384" as="targetPoint" />
          </mxGeometry>
        </mxCell>
        <mxCell id="QSxUD3L64rz79heJzELz-7" value="Formularz logowania" style="shape=umlBoundary;whiteSpace=wrap;html=1;" parent="1" vertex="1">
          <mxGeometry x="460" y="320" width="100" height="80" as="geometry" />
        </mxCell>
        <mxCell id="QSxUD3L64rz79heJzELz-8" value="Logowanie" style="ellipse;shape=umlControl;whiteSpace=wrap;html=1;" parent="1" vertex="1">
          <mxGeometry x="620" y="320" width="70" height="80" as="geometry" />
        </mxCell>
        <mxCell id="QSxUD3L64rz79heJzELz-9" style="edgeStyle=orthogonalEdgeStyle;rounded=0;orthogonalLoop=1;jettySize=auto;html=1;endArrow=open;endFill=0;" parent="1" source="QSxUD3L64rz79heJzELz-7" target="QSxUD3L64rz79heJzELz-8" edge="1">
          <mxGeometry relative="1" as="geometry" />
        </mxCell>
        <mxCell id="QSxUD3L64rz79heJzELz-10" value="Użytkownik" style="ellipse;shape=umlEntity;whiteSpace=wrap;html=1;" parent="1" vertex="1">
          <mxGeometry x="730" y="330" width="80" height="80" as="geometry" />
        </mxCell>
        <mxCell id="QSxUD3L64rz79heJzELz-11" style="edgeStyle=orthogonalEdgeStyle;rounded=0;orthogonalLoop=1;jettySize=auto;html=1;entryX=0.025;entryY=0.375;entryDx=0;entryDy=0;entryPerimeter=0;endArrow=open;endFill=0;" parent="1" source="QSxUD3L64rz79heJzELz-8" target="QSxUD3L64rz79heJzELz-10" edge="1">
          <mxGeometry relative="1" as="geometry" />
        </mxCell>
        <mxCell id="QSxUD3L64rz79heJzELz-16" style="rounded=0;orthogonalLoop=1;jettySize=auto;html=1;entryX=0;entryY=0.5;entryDx=0;entryDy=0;" parent="1" source="QSxUD3L64rz79heJzELz-12" target="QSxUD3L64rz79heJzELz-15" edge="1">
          <mxGeometry relative="1" as="geometry" />
        </mxCell>
        <mxCell id="QSxUD3L64rz79heJzELz-12" value="Zarządzaj produktami" style="shape=umlBoundary;whiteSpace=wrap;html=1;" parent="1" vertex="1">
          <mxGeometry x="230" y="320" width="100" height="80" as="geometry" />
        </mxCell>
        <mxCell id="QSxUD3L64rz79heJzELz-15" value="Produkty" style="ellipse;shape=umlEntity;whiteSpace=wrap;html=1;" parent="1" vertex="1">
          <mxGeometry x="120" y="300" width="80" height="80" as="geometry" />
        </mxCell>
        <mxCell id="QSxUD3L64rz79heJzELz-17" value="Dodaj produkt" style="ellipse;shape=umlControl;whiteSpace=wrap;html=1;" parent="1" vertex="1">
          <mxGeometry x="10" y="230" width="70" height="80" as="geometry" />
        </mxCell>
        <mxCell id="QSxUD3L64rz79heJzELz-18" value="Usuń produkt" style="ellipse;shape=umlControl;whiteSpace=wrap;html=1;" parent="1" vertex="1">
          <mxGeometry x="100" y="170" width="70" height="80" as="geometry" />
        </mxCell>
        <mxCell id="QSxUD3L64rz79heJzELz-19" value="Edytuj produkt" style="ellipse;shape=umlControl;whiteSpace=wrap;html=1;" parent="1" vertex="1">
          <mxGeometry x="10" y="360" width="70" height="80" as="geometry" />
        </mxCell>
        <mxCell id="QSxUD3L64rz79heJzELz-20" value="" style="endArrow=open;html=1;rounded=0;endFill=0;exitX=0.5;exitY=0;exitDx=0;exitDy=0;" parent="1" source="QSxUD3L64rz79heJzELz-15" target="QSxUD3L64rz79heJzELz-18" edge="1">
          <mxGeometry width="50" height="50" relative="1" as="geometry">
            <mxPoint x="190" y="310" as="sourcePoint" />
            <mxPoint x="-90" y="270" as="targetPoint" />
          </mxGeometry>
        </mxCell>
        <mxCell id="QSxUD3L64rz79heJzELz-21" value="" style="endArrow=open;html=1;rounded=0;exitX=0.047;exitY=0.297;exitDx=0;exitDy=0;exitPerimeter=0;entryX=0.857;entryY=0.875;entryDx=0;entryDy=0;entryPerimeter=0;endFill=0;" parent="1" source="QSxUD3L64rz79heJzELz-15" target="QSxUD3L64rz79heJzELz-17" edge="1">
          <mxGeometry width="50" height="50" relative="1" as="geometry">
            <mxPoint x="-140" y="320" as="sourcePoint" />
            <mxPoint x="-90" y="270" as="targetPoint" />
          </mxGeometry>
        </mxCell>
        <mxCell id="QSxUD3L64rz79heJzELz-22" value="" style="endArrow=open;html=1;rounded=0;exitX=0.058;exitY=0.683;exitDx=0;exitDy=0;entryX=0.832;entryY=0.217;entryDx=0;entryDy=0;entryPerimeter=0;exitPerimeter=0;endFill=0;" parent="1" source="QSxUD3L64rz79heJzELz-15" target="QSxUD3L64rz79heJzELz-19" edge="1">
          <mxGeometry width="50" height="50" relative="1" as="geometry">
            <mxPoint x="-140" y="320" as="sourcePoint" />
            <mxPoint x="-90" y="270" as="targetPoint" />
          </mxGeometry>
        </mxCell>
        <mxCell id="uZeyAafT73guczvmkMr5-1" style="edgeStyle=orthogonalEdgeStyle;rounded=0;orthogonalLoop=1;jettySize=auto;html=1;entryX=1;entryY=0.5;entryDx=0;entryDy=0;entryPerimeter=0;endArrow=open;endFill=0;" edge="1" parent="1" source="QSxUD3L64rz79heJzELz-1" target="QSxUD3L64rz79heJzELz-12">
          <mxGeometry relative="1" as="geometry" />
        </mxCell>
      </root>
    </mxGraphModel>
  </diagram>
</mxfile>
